<svg xmlns="http://www.w3.org/2000/svg" viewBox="0 0 1200 1200" fill="currentColor"><path d="m690.94 727.31v109.12h36.375v-145.5h36.375v-36.375h-109.12v36.375h36.375z"/><path d="m618.19 690.94v-36.375h-36.375v72.75h36.375z"/><path d="m581.81 836.44h36.375v-72.75h-36.375z"/><path d="m545.44 800.06v-36.375h-36.375v72.75h36.375z"/><path d="m545.44 727.31h36.375v36.375h-36.375z"/><path d="m545.44 654.56h-36.375v72.75h36.375z"/><path d="m945.37 145.5h-36.375v36.375h-36.188v-36.375h36.188v-36.375h-36.188v-36.375h-509.26v109.12h-108.94v436.31h618.19v-36.375h-472.87v-472.69h436.5v109.12h108.94v763.5h-545.44v-72.75h472.87v-36.188h-618.19v254.44h654.37v-109.12h72.75v-836.26h-36.375zm-581.81 109.12v327.19h-72.562v-363.56h72.562zm509.26 799.87v36.375h-581.81v-181.87h72.562v109.12h509.26z"/><path d="m872.81 690.94v181.87h36.188v-254.63h-36.188z"/><path d="m399.94 727.31v109.12h36.375v-145.5h36.375v-36.375h-109.12v36.375h36.375z"/><path d="m291 800.06h36.188v36.375h-36.188z"/><path d="m254.63 800.06v-181.87h-36.375v254.63h36.375z"/></svg>
