<svg xmlns="http://www.w3.org/2000/svg" viewBox="0 0 1200 1200" fill="currentColor"><path d="m78.844 695.21 226.08 130.55 226.13-130.55-226.08-130.6zm260.72-190.26v-261.05l225.89 130.45v261.05zm294.98 130.45 225.89-130.4v-261.1l-225.89 130.45zm191.53-451.22-226.08-130.55-226.08 130.55 226.08 130.5zm34.359 962.21v-261.05l-225.89-130.4v261.05zm69.141-261.14v261.14l225.89-130.45v-261.1zm-260.63-190.08 226.08-130.55 226.13 130.55-226.08 130.55zm-398.53 451.22-225.89-130.45v-261.1l225.89 130.4zm69.141-261.05 225.89-130.4v261.05l-225.89 130.4z"/></svg>
