<svg xmlns="http://www.w3.org/2000/svg" viewBox="0 0 1200 1200" fill="currentColor"><path d="m303.28 174.66v-108.94l-108.94 108.94zm-133.36 34.547h150.66c9.5625 0 17.297-7.7344 17.297-17.297l-0.046875-150.61h609.32v1034.5h-777.24zm811.82-52.969h48.328v1002.5h-745.22v-48.328h696.89zm-594.05 283.78 170.81 98.625 170.81-98.625-170.76-98.625zm153.56 325.69v-197.26l-170.72-98.578v197.21zm26.953 44.203 203.16-117.28c5.7656-2.8125 9.75-8.7188 9.75-15.562v-237.05h-0.046875c0-6.75-3.6562-12.281-9.5625-15.422l-204.19-117.89-17.344-0.09375-203.9 117.7c-5.9531 2.7188-10.125 8.7188-10.125 15.703v237.05h0.046875c0 5.9531 3.0938 11.719 8.5781 14.906l204.24 117.89c6.2344 3.8906 13.406 4.125 19.406 0.046875zm7.5938-241.45v197.26l170.72-98.578v-197.21z"/></svg>
