<svg xmlns="http://www.w3.org/2000/svg" viewBox="0 0 1200 1200" fill="currentColor"><path d="m262.13 498.55-0.046874-141.05 547.01-315.81 128.77 74.281 0.046874 0.023437s-0.046874 726.55-0.046874 726.55l-547.02 315.82-128.71-74.246v-585.56zm54.617-109.48 0.058594 80.102 73.926 42.75 492.5-284.35 0.011719-80.066-73.984-42.727zm0.035156 143.13 0.023438 131.45 73.926 42.75 492.5-284.35 0.035156-131.43-492.43 284.3-74.055-42.727zm0.011719 194.48 0.011719 131.45 73.926 42.738 492.5-284.35 0.023437-131.41-492.41 284.29-74.043-42.727zm0 194.48 0.011719 131.44 73.926 42.75 492.5-284.35 0.011719-131.42-492.4 284.29-74.043-42.711z"/></svg>
